{
	"asset":{
		"generator":"Khronos glTF Blender I/O v4.1.63",
		"version":"2.0"
	},
	"scene":0,
	"scenes":[
		{
			"name":"Scene",
			"nodes":[
				0,
				1,
				2,
				3
			]
		}
	],
	"nodes":[
		{
			"mesh":0,
			"name":"table",
			"translation":[
				-0.19497118890285492,
				-0.29864585399627686,
				-0.45472556352615356
			]
		},
		{
			"mesh":1,
			"name":"red paddle",
			"rotation":[
				0.6448933482170105,
				-0.29002171754837036,
				0.29002174735069275,
				0.6448933482170105
			],
			"scale":[
				0.06209002807736397,
				0.06209002807736397,
				0.06209002807736397
			],
			"translation":[
				-0.3406253457069397,
				0.15974554419517517,
				0.020543213933706284
			]
		},
		{
			"mesh":2,
			"name":"blue paddle",
			"rotation":[
				0.2984228730201721,
				0.6410489678382874,
				-0.6410489678382874,
				0.2984228730201721
			],
			"scale":[
				0.06209002435207367,
				0.06209002435207367,
				0.06209002807736397
			],
			"translation":[
				0.5943599939346313,
				0.15974554419517517,
				0
			]
		},
		{
			"mesh":3,
			"name":"ball",
			"rotation":[
				0,
				-0.4101526141166687,
				0,
				0.9120169281959534
			],
			"scale":[
				0.05395853519439697,
				0.053958531469106674,
				0.05395853519439697
			],
			"translation":[
				-0.2924862504005432,
				0.18578197062015533,
				0.0324566476047039
			]
		}
	],
	"materials":[
		{
			"doubleSided":true,
			"name":"Material",
			"pbrMetallicRoughness":{
				"baseColorTexture":{
					"index":0
				},
				"metallicFactor":0,
				"roughnessFactor":0.47826087474823
			}
		}
	],
	"meshes":[
		{
			"name":"Cube.021",
			"primitives":[
				{
					"attributes":{
						"POSITION":0,
						"NORMAL":1,
						"TEXCOORD_0":2
					},
					"indices":3,
					"material":0
				}
			]
		},
		{
			"name":"Circle.001",
			"primitives":[
				{
					"attributes":{
						"POSITION":4,
						"NORMAL":5,
						"TEXCOORD_0":6
					},
					"indices":7,
					"material":0
				}
			]
		},
		{
			"name":"Circle.002",
			"primitives":[
				{
					"attributes":{
						"POSITION":8,
						"NORMAL":9,
						"TEXCOORD_0":10
					},
					"indices":7,
					"material":0
				}
			]
		},
		{
			"name":"Sphere",
			"primitives":[
				{
					"attributes":{
						"POSITION":11,
						"NORMAL":12
					},
					"indices":13
				}
			]
		}
	],
	"textures":[
		{
			"sampler":0,
			"source":0
		}
	],
	"images":[
		{
			"mimeType":"image/png",
			"name":"low poly vhs textures",
			"uri":"low%20poly%20vhs%20textures.png"
		}
	],
	"accessors":[
		{
			"bufferView":0,
			"componentType":5126,
			"count":762,
			"max":[
				1.300513744354248,
				0.45695263147354126,
				1.1881117820739746
			],
			"min":[
				-0.912987232208252,
				-0.28762707114219666,
				-0.27921295166015625
			],
			"type":"VEC3"
		},
		{
			"bufferView":1,
			"componentType":5126,
			"count":762,
			"type":"VEC3"
		},
		{
			"bufferView":2,
			"componentType":5126,
			"count":762,
			"type":"VEC2"
		},
		{
			"bufferView":3,
			"componentType":5123,
			"count":1398,
			"type":"SCALAR"
		},
		{
			"bufferView":4,
			"componentType":5126,
			"count":232,
			"max":[
				1.3041738271713257,
				2.6723649501800537,
				0.19318155944347382
			],
			"min":[
				-1.3041738271713257,
				-1.5049126148223877,
				-0.19318154454231262
			],
			"type":"VEC3"
		},
		{
			"bufferView":5,
			"componentType":5126,
			"count":232,
			"type":"VEC3"
		},
		{
			"bufferView":6,
			"componentType":5126,
			"count":232,
			"type":"VEC2"
		},
		{
			"bufferView":7,
			"componentType":5123,
			"count":528,
			"type":"SCALAR"
		},
		{
			"bufferView":8,
			"componentType":5126,
			"count":232,
			"max":[
				1.3041738271713257,
				2.6723649501800537,
				0.19318155944347382
			],
			"min":[
				-1.3041738271713257,
				-1.5049126148223877,
				-0.19318154454231262
			],
			"type":"VEC3"
		},
		{
			"bufferView":9,
			"componentType":5126,
			"count":232,
			"type":"VEC3"
		},
		{
			"bufferView":10,
			"componentType":5126,
			"count":232,
			"type":"VEC2"
		},
		{
			"bufferView":11,
			"componentType":5126,
			"count":114,
			"max":[
				0.3047999143600464,
				0.30480000376701355,
				0.3047998249530792
			],
			"min":[
				-0.3047998547554016,
				-0.30480000376701355,
				-0.304799884557724
			],
			"type":"VEC3"
		},
		{
			"bufferView":12,
			"componentType":5126,
			"count":114,
			"type":"VEC3"
		},
		{
			"bufferView":13,
			"componentType":5123,
			"count":672,
			"type":"SCALAR"
		}
	],
	"bufferViews":[
		{
			"buffer":0,
			"byteLength":9144,
			"byteOffset":0,
			"target":34962
		},
		{
			"buffer":0,
			"byteLength":9144,
			"byteOffset":9144,
			"target":34962
		},
		{
			"buffer":0,
			"byteLength":6096,
			"byteOffset":18288,
			"target":34962
		},
		{
			"buffer":0,
			"byteLength":2796,
			"byteOffset":24384,
			"target":34963
		},
		{
			"buffer":0,
			"byteLength":2784,
			"byteOffset":27180,
			"target":34962
		},
		{
			"buffer":0,
			"byteLength":2784,
			"byteOffset":29964,
			"target":34962
		},
		{
			"buffer":0,
			"byteLength":1856,
			"byteOffset":32748,
			"target":34962
		},
		{
			"buffer":0,
			"byteLength":1056,
			"byteOffset":34604,
			"target":34963
		},
		{
			"buffer":0,
			"byteLength":2784,
			"byteOffset":35660,
			"target":34962
		},
		{
			"buffer":0,
			"byteLength":2784,
			"byteOffset":38444,
			"target":34962
		},
		{
			"buffer":0,
			"byteLength":1856,
			"byteOffset":41228,
			"target":34962
		},
		{
			"buffer":0,
			"byteLength":1368,
			"byteOffset":43084,
			"target":34962
		},
		{
			"buffer":0,
			"byteLength":1368,
			"byteOffset":44452,
			"target":34962
		},
		{
			"buffer":0,
			"byteLength":1344,
			"byteOffset":45820,
			"target":34963
		}
	],
	"samplers":[
		{
			"magFilter":9729,
			"minFilter":9987
		}
	],
	"buffers":[
		{
			"byteLength":47164,
			"uri":"tablePing.bin"
		}
	]
}
